<svg xmlns="http://www.w3.org/2000/svg" viewBox="0 0 32 32"><g fill="#101820" data-name="15-tire-pressure"><path d="M18 30a1 1 0 0 1-1-1v-2a1 1 0 0 1 2 0v2a1 1 0 0 1-1 1zm4 0a1 1 0 0 1-1-1v-3a1 1 0 0 1 2 0v3a1 1 0 0 1-1 1zm-8 0a1 1 0 0 1-1-1v-2a1 1 0 0 1 2 0v2a1 1 0 0 1-1 1zm-4 0a1 1 0 0 1-1-1v-3a1 1 0 0 1 2 0v3a1 1 0 0 1-1 1z"/><path d="M16 28A12 12 0 0 1 9 6.26V3a1 1 0 0 1 2 0v3.79a1 1 0 0 1-.45.84 10 10 0 1 0 10.91 0 1 1 0 0 1-.46-.84V3a1 1 0 0 1 2 0v3.26A12 12 0 0 1 16 28Z"/><path d="M16 17a1 1 0 0 1-1-1v-6a1 1 0 0 1 2 0v6a1 1 0 0 1-1 1zm0 6a1 1 0 0 1-1-1v-2a1 1 0 0 1 2 0v2a1 1 0 0 1-1 1z"/></g></svg>